<svg width="205" height="90" viewBox="0 0 205 90" fill="none" xmlns="http://www.w3.org/2000/svg">
<path d="M135.936 0C139.648 0.639999 142.56 1.568 144.672 2.784C146.784 3.936 148.256 5.248 149.088 6.72C149.92 8.128 150.272 9.504 150.144 10.848C150.016 12.128 149.504 13.184 148.608 14.016C147.712 14.848 146.624 15.328 145.344 15.456C144.064 15.52 142.72 15.008 141.312 13.92C141.12 11.552 140.384 9.152 139.104 6.72C137.888 4.288 136.512 2.272 134.976 0.671997L135.936 0ZM122.4 36.96C124.192 36.96 126.688 36.96 129.888 36.96C133.152 36.896 136.768 36.832 140.736 36.768C144.768 36.64 148.864 36.512 153.024 36.384L153.12 37.92C151.2 38.432 148.736 39.072 145.728 39.84C142.784 40.608 139.52 41.44 135.936 42.336C132.352 43.168 128.576 44 124.608 44.832L122.4 36.96ZM147.456 22.464C147.2 23.04 146.592 23.488 145.632 23.808C144.672 24.064 143.392 23.904 141.792 23.328L144.864 22.656C143.456 24.256 141.632 26.08 139.392 28.128C137.216 30.112 134.88 32.032 132.384 33.888C129.888 35.744 127.552 37.28 125.376 38.496L125.28 37.536H129.216C128.832 40.416 128.128 42.528 127.104 43.872C126.08 45.152 125.024 45.952 123.936 46.272L120.576 36.384C120.576 36.384 120.896 36.32 121.536 36.192C122.176 36.064 122.88 35.904 123.648 35.712C124.416 35.52 124.928 35.328 125.184 35.136C126.144 34.368 127.104 33.248 128.064 31.776C129.088 30.304 130.08 28.704 131.04 26.976C132 25.184 132.832 23.424 133.536 21.696C134.304 19.968 134.912 18.464 135.36 17.184L147.456 22.464ZM150.24 64.992C154.976 66.528 158.784 68.256 161.664 70.176C164.544 72.096 166.656 74.048 168 76.032C169.408 78.016 170.176 79.84 170.304 81.504C170.496 83.232 170.208 84.64 169.44 85.728C168.736 86.816 167.712 87.456 166.368 87.648C165.088 87.84 163.68 87.392 162.144 86.304C161.504 84 160.48 81.6 159.072 79.104C157.664 76.608 156.064 74.208 154.272 71.904C152.544 69.536 150.88 67.456 149.28 65.664L150.24 64.992ZM165.024 29.856C164.704 30.368 164.256 30.72 163.68 30.912C163.104 31.104 162.24 31.104 161.088 30.912C155.712 39.616 149.44 47.072 142.272 53.28C135.168 59.424 127.072 64.512 117.984 68.544L117.12 67.104C124.928 62.112 131.872 56.128 137.952 49.152C144.032 42.112 149.248 33.824 153.6 24.288L165.024 29.856ZM171.936 48.096C171.616 48.672 171.136 49.056 170.496 49.248C169.92 49.376 169.056 49.344 167.904 49.152C163.616 55.744 158.848 61.568 153.6 66.624C148.416 71.616 142.752 75.968 136.608 79.68C130.464 83.328 123.84 86.496 116.736 89.184L115.968 87.648C125.184 82.592 133.504 76.416 140.928 69.12C148.416 61.824 154.816 52.8 160.128 42.048L171.936 48.096ZM163.968 8.448C163.968 8.448 164.256 8.704 164.832 9.216C165.472 9.728 166.272 10.4 167.232 11.232C168.256 12.064 169.28 12.96 170.304 13.92C171.392 14.816 172.384 15.68 173.28 16.512C173.024 17.536 172.192 18.048 170.784 18.048H117.024L116.256 15.264H158.784L163.968 8.448ZM204.96 2.784C204.832 3.488 204.512 4.064 204 4.512C203.488 4.96 202.624 5.248 201.408 5.376V77.76C201.408 80 201.12 81.92 200.544 83.52C200.032 85.184 198.88 86.496 197.088 87.456C195.296 88.416 192.512 89.088 188.736 89.472C188.544 88 188.288 86.72 187.968 85.632C187.648 84.544 187.104 83.616 186.336 82.848C185.568 82.08 184.544 81.44 183.264 80.928C181.984 80.416 180.128 80 177.696 79.68V78.24C177.696 78.24 178.208 78.304 179.232 78.432C180.32 78.496 181.6 78.56 183.072 78.624C184.608 78.688 186.048 78.784 187.392 78.912C188.736 78.976 189.664 79.008 190.176 79.008C191.008 79.008 191.584 78.848 191.904 78.528C192.224 78.208 192.384 77.696 192.384 76.992V1.536L204.96 2.784ZM186.432 12.48C186.304 13.12 185.984 13.696 185.472 14.208C184.96 14.656 184.096 14.944 182.88 15.072V65.28C182.88 65.536 182.528 65.888 181.824 66.336C181.12 66.72 180.256 67.072 179.232 67.392C178.208 67.648 177.12 67.776 175.968 67.776H174.432V11.232L186.432 12.48Z" fill="#2C2621"/>
<path d="M1.824 12.192H75.072L80.352 5.472C80.352 5.472 80.672 5.728 81.312 6.24C81.952 6.752 82.784 7.424 83.808 8.256C84.832 9.024 85.888 9.888 86.976 10.848C88.128 11.744 89.152 12.608 90.048 13.44C89.792 14.464 88.896 14.976 87.36 14.976H2.592L1.824 12.192ZM26.784 26.4H64.608V29.088H26.784V26.4ZM26.784 40.992H64.608V43.776H26.784V40.992ZM23.04 0.0959988L35.52 1.248C35.392 1.888 35.104 2.432 34.656 2.88C34.208 3.328 33.376 3.648 32.16 3.84V47.424C32.16 47.68 31.776 48.032 31.008 48.48C30.24 48.864 29.28 49.248 28.128 49.632C26.976 49.952 25.856 50.112 24.768 50.112H23.04V0.0959988ZM59.232 0L72 1.248C71.872 1.824 71.584 2.336 71.136 2.784C70.688 3.232 69.856 3.552 68.64 3.744V46.464C68.64 46.72 68.256 47.072 67.488 47.52C66.72 47.968 65.728 48.352 64.512 48.672C63.36 48.928 62.176 49.056 60.96 49.056H59.232V0ZM1.248 55.104H74.208L79.872 48.096C79.872 48.096 80.224 48.352 80.928 48.864C81.632 49.376 82.528 50.048 83.616 50.88C84.704 51.712 85.824 52.608 86.976 53.568C88.192 54.528 89.28 55.456 90.24 56.352C90.112 56.864 89.824 57.248 89.376 57.504C88.928 57.76 88.352 57.888 87.648 57.888H2.016L1.248 55.104ZM34.944 55.104H46.848V56.64C42.304 63.552 36.064 69.568 28.128 74.688C20.192 79.744 11.04 83.808 0.672 86.88L0 85.44C5.184 83.072 9.984 80.288 14.4 77.088C18.816 73.824 22.752 70.336 26.208 66.624C29.728 62.848 32.64 59.008 34.944 55.104ZM50.784 55.104C53.536 58.624 57.152 61.824 61.632 64.704C66.112 67.584 70.976 70.048 76.224 72.096C81.472 74.144 86.656 75.648 91.776 76.608L91.68 77.664C89.824 78.048 88.192 79.008 86.784 80.544C85.44 82.016 84.512 83.904 84 86.208C78.944 84.352 74.24 81.984 69.888 79.104C65.536 76.16 61.664 72.736 58.272 68.832C54.88 64.928 52 60.608 49.632 55.872L50.784 55.104ZM41.088 42.048H50.496V86.496C50.496 86.688 50.176 87.008 49.536 87.456C48.896 87.968 48 88.416 46.848 88.8C45.76 89.184 44.384 89.376 42.72 89.376H41.088V42.048Z" fill="#2C2621"/>
</svg>
